<svg xmlns="http://www.w3.org/2000/svg" xmlns:xlink="http://www.w3.org/1999/xlink" width="500" zoomAndPan="magnify" viewBox="0 0 375 374.999991" height="500" preserveAspectRatio="xMidYMid meet" version="1.0"><defs><g/><clipPath id="c2453deab7"><path d="M 6 10.804688 L 369 10.804688 L 369 364 L 6 364 Z M 6 10.804688 " clip-rule="nonzero"/></clipPath><clipPath id="54ad2992a0"><path d="M 6 10.804688 L 369 10.804688 L 369 364.054688 L 6 364.054688 Z M 6 10.804688 " clip-rule="nonzero"/></clipPath></defs><rect x="-37.5" width="450" fill="#ffffff" y="-37.499999" height="449.999989" fill-opacity="1"/><rect x="-37.5" width="450" fill="#ffffff" y="-37.499999" height="449.999989" fill-opacity="1"/><rect x="-37.5" width="450" fill="#ffffff" y="-37.499999" height="449.999989" fill-opacity="1"/><g clip-path="url(#c2453deab7)"><path fill="#09489f" d="M 351.3125 363.398438 L 23.457031 363.398438 C 12.707031 363.398438 5.246094 357.839844 6.710938 351.109375 L 6.710938 341.894531 L 15.777344 304.011719 L 31.792969 231.019531 C 32.816406 226.414062 40.714844 222.683594 49.417969 222.683594 L 54.902344 221.953125 C 43.566406 221.953125 34.207031 213.25 33.183594 202.203125 C 32.671875 200.304688 32.378906 198.253906 32.378906 196.207031 L 32.378906 33.40625 C 32.378906 20.972656 42.542969 10.804688 54.976562 10.804688 L 319.863281 10.804688 C 332.296875 10.804688 342.460938 20.972656 342.460938 33.40625 L 342.460938 196.132812 C 342.460938 198.183594 342.167969 200.230469 341.65625 202.132812 C 340.632812 213.25 331.273438 221.878906 319.9375 221.878906 L 325.421875 222.609375 C 334.125 222.609375 342.023438 226.339844 343.046875 230.945312 L 361.039062 313.007812 L 368.203125 343.285156 L 368.203125 351.039062 C 369.59375 357.839844 362.0625 363.398438 351.3125 363.398438 Z M 351.3125 363.398438 " fill-opacity="1" fill-rule="nonzero"/></g><path fill="#70ffff" d="M 368.132812 351.109375 L 368.132812 343.359375 L 360.964844 313.078125 L 367.328125 342.042969 C 367.765625 344.164062 367.253906 346.285156 365.792969 348.039062 C 363.085938 351.402344 357.671875 353.378906 351.238281 353.378906 L 23.457031 353.378906 C 17.019531 353.378906 11.609375 351.402344 8.902344 348.039062 C 7.441406 346.210938 6.929688 344.164062 7.367188 342.042969 L 15.703125 304.011719 L 6.710938 341.894531 L 6.710938 351.109375 C 5.246094 357.839844 12.707031 363.398438 23.457031 363.398438 L 351.3125 363.398438 C 362.0625 363.398438 369.59375 357.839844 368.132812 351.109375 Z M 368.132812 351.109375 " fill-opacity="1" fill-rule="nonzero"/><path fill="#ffe1ff" d="M 330.613281 208.054688 L 44.082031 208.054688 L 44.082031 29.308594 L 330.613281 29.308594 Z M 330.613281 208.054688 " fill-opacity="1" fill-rule="nonzero"/><path fill="#70ffff" d="M 253.972656 342.113281 L 120.722656 342.113281 L 124.378906 297.136719 L 250.316406 297.136719 Z M 253.972656 342.113281 " fill-opacity="1" fill-rule="nonzero"/><g clip-path="url(#54ad2992a0)"><path fill="#000000" d="M 224.058594 291.871094 L 127.890625 291.871094 L 128.695312 281.046875 L 223.476562 281.046875 Z M 220.257812 265.761719 L 236.566406 265.761719 L 235.980469 256.546875 L 219.890625 256.546875 Z M 234.371094 244.769531 L 234.957031 253.691406 L 251.046875 253.691406 L 250.242188 244.769531 Z M 193.929688 244.769531 L 194.003906 253.691406 L 210.089844 253.691406 L 209.800781 244.769531 Z M 246.585938 268.539062 L 230.203125 268.539062 L 230.714844 278.046875 L 247.316406 278.046875 Z M 199.707031 265.761719 L 216.015625 265.761719 L 215.648438 256.546875 L 199.558594 256.546875 Z M 225.816406 268.539062 L 209.433594 268.539062 L 209.726562 278.046875 L 226.328125 278.046875 Z M 214.113281 244.769531 L 214.480469 253.691406 L 230.570312 253.691406 L 230.058594 244.769531 Z M 205.046875 268.539062 L 188.664062 268.539062 L 188.664062 278.046875 L 205.265625 278.046875 Z M 147.199219 268.539062 L 146.683594 278.046875 L 163.285156 278.046875 L 163.578125 268.539062 Z M 167.96875 268.539062 L 167.746094 278.046875 L 184.347656 278.046875 L 184.421875 268.539062 Z M 94.101562 256.472656 L 78.015625 256.472656 L 76.625 265.761719 L 92.933594 265.761719 Z M 179.230469 265.761719 L 195.539062 265.761719 L 195.464844 256.546875 L 179.375 256.546875 Z M 64.265625 268.539062 L 62.730469 278.046875 L 79.257812 278.046875 L 80.644531 268.539062 Z M 88.542969 244.769531 L 72.675781 244.769531 L 71.285156 253.691406 L 87.375 253.691406 Z M 331.34375 208.785156 L 43.347656 208.785156 L 43.347656 28.578125 L 331.34375 28.578125 Z M 329.882812 30.113281 L 44.8125 30.113281 L 44.8125 207.398438 L 329.882812 207.398438 Z M 281.835938 265.761719 L 298.144531 265.761719 L 296.753906 256.546875 L 280.664062 256.546875 Z M 56.730469 291.871094 L 75.308594 291.871094 L 76.917969 281.046875 L 58.632812 281.046875 Z M 228.15625 291.871094 L 249.949219 291.871094 L 249.070312 281.046875 L 227.570312 281.046875 Z M 254.554688 244.769531 L 255.359375 253.691406 L 271.449219 253.691406 L 270.425781 244.769531 Z M 251.703125 278.121094 L 268.304688 278.121094 L 267.28125 268.613281 L 250.898438 268.613281 Z M 240.734375 265.761719 L 257.042969 265.761719 L 256.164062 256.546875 L 240.074219 256.546875 Z M 261.285156 265.761719 L 277.59375 265.761719 L 276.496094 256.546875 L 260.40625 256.546875 Z M 274.742188 244.769531 L 275.835938 253.691406 L 291.925781 253.691406 L 290.683594 244.769531 Z M 310.867188 244.769531 L 295 244.769531 L 296.316406 253.691406 L 312.402344 253.691406 Z M 142.808594 268.539062 L 126.425781 268.539062 L 125.625 278.046875 L 142.222656 278.046875 Z M 173.746094 244.769531 L 173.597656 253.691406 L 189.6875 253.691406 L 189.6875 244.769531 Z M 297.703125 281.046875 L 299.242188 291.871094 L 317.816406 291.871094 L 315.988281 281.046875 Z M 293.753906 278.121094 L 337.855469 278.121094 L 336.027344 268.832031 L 292.4375 268.832031 Z M 321.910156 291.871094 L 340.488281 291.871094 L 338.367188 281.046875 L 320.082031 281.046875 Z M 288.050781 268.539062 L 271.667969 268.539062 L 272.765625 278.046875 L 289.367188 278.046875 Z M 275.398438 281.046875 L 276.640625 291.871094 L 295.21875 291.871094 L 293.683594 281.046875 Z M 253.019531 281.046875 L 253.972656 291.871094 L 272.546875 291.871094 L 271.375 281.046875 Z M 316.71875 253.765625 L 332.808594 253.765625 L 331.054688 244.84375 L 315.183594 244.84375 Z M 54.609375 281.046875 L 36.328125 281.046875 L 34.207031 291.871094 L 52.78125 291.871094 Z M 73.773438 256.617188 L 41.082031 256.617188 L 39.328125 265.613281 L 72.382812 265.613281 Z M 59.804688 268.832031 L 38.667969 268.832031 L 36.839844 278.121094 L 58.195312 278.121094 Z M 68.359375 244.917969 L 43.421875 244.917969 L 41.667969 253.621094 L 66.898438 253.621094 Z M 329.152344 234.824219 L 45.46875 234.824219 L 44.007812 242.136719 L 330.613281 242.136719 Z M 302.3125 265.613281 L 335.367188 265.613281 L 333.613281 256.617188 L 300.921875 256.617188 Z M 132.644531 253.765625 L 148.734375 253.765625 L 149.171875 244.84375 L 133.300781 244.84375 Z M 117.652344 265.761719 L 133.960938 265.761719 L 134.617188 256.546875 L 118.527344 256.546875 Z M 138.128906 265.761719 L 154.4375 265.761719 L 154.875 256.546875 L 138.785156 256.546875 Z M 104.707031 278.121094 L 121.308594 278.121094 L 122.113281 268.613281 L 105.730469 268.613281 Z M 153.121094 253.765625 L 169.210938 253.765625 L 169.429688 244.84375 L 153.558594 244.84375 Z M 158.679688 265.761719 L 174.988281 265.761719 L 175.132812 256.546875 L 159.042969 256.546875 Z M 83.644531 278.121094 L 100.246094 278.121094 L 101.34375 268.613281 L 84.960938 268.613281 Z M 250.972656 296.40625 L 254.703125 342.847656 L 119.917969 342.847656 L 123.648438 296.40625 Z M 253.167969 341.382812 L 249.65625 297.867188 L 125.039062 297.867188 L 121.527344 341.382812 Z M 124.671875 281.046875 L 103.171875 281.046875 L 102 291.871094 L 123.792969 291.871094 Z M 112.167969 253.765625 L 128.257812 253.765625 L 128.988281 244.84375 L 113.117188 244.84375 Z M 79.402344 291.871094 L 97.980469 291.871094 L 99.222656 281.046875 L 80.9375 281.046875 Z M 91.761719 253.765625 L 107.851562 253.765625 L 108.800781 244.84375 L 92.933594 244.84375 Z M 97.101562 265.761719 L 113.410156 265.761719 L 114.359375 256.546875 L 98.269531 256.546875 Z M 366.304688 358.132812 C 363.304688 361.863281 357.453125 364.054688 350.578125 364.054688 L 24.113281 364.054688 C 17.3125 364.054688 11.460938 361.863281 8.464844 358.132812 C 6.78125 356.011719 6.125 353.523438 6.636719 350.964844 L 6.636719 345.039062 C 6.417969 344.015625 6.417969 342.917969 6.636719 341.824219 L 30.988281 230.800781 C 32.085938 225.828125 40.203125 221.878906 49.199219 221.878906 C 39.472656 219.390625 32.234375 210.542969 32.234375 200.011719 L 32.234375 33.40625 C 32.234375 20.972656 42.398438 10.804688 54.832031 10.804688 L 319.863281 10.804688 C 332.296875 10.804688 342.460938 20.972656 342.460938 33.40625 L 342.460938 200.082031 C 342.460938 210.617188 335.222656 219.464844 325.496094 221.953125 C 334.492188 221.953125 342.609375 225.972656 343.703125 230.875 L 368.058594 341.894531 C 368.277344 342.847656 368.277344 343.796875 368.132812 344.675781 L 368.132812 351.039062 C 368.644531 353.523438 368.058594 356.011719 366.304688 358.132812 Z M 54.902344 221.148438 L 319.863281 221.148438 C 331.492188 221.148438 341 211.640625 341 200.011719 L 341 37.355469 C 341 25.726562 331.492188 16.21875 319.863281 16.21875 L 54.902344 16.21875 C 43.277344 16.21875 33.769531 25.726562 33.769531 37.355469 L 33.769531 200.082031 C 33.769531 211.710938 43.203125 221.148438 54.902344 221.148438 Z M 8.171875 342.113281 L 8.171875 345.039062 C 8.390625 345.917969 8.832031 346.796875 9.488281 347.601562 C 12.046875 350.746094 17.386719 352.71875 23.457031 352.71875 L 351.3125 352.71875 C 357.378906 352.71875 362.71875 350.746094 365.277344 347.601562 C 366.082031 346.578125 366.523438 345.480469 366.667969 344.382812 C 366.667969 344.382812 366.667969 342.625 366.59375 342.1875 L 342.242188 231.167969 C 341.292969 226.925781 333.539062 223.339844 325.347656 223.339844 L 241.464844 223.339844 L 238.175781 227.65625 L 136.519531 227.65625 L 133.230469 223.339844 L 49.417969 223.339844 C 41.15625 223.339844 33.476562 226.925781 32.523438 231.167969 Z M 366.667969 351.257812 L 366.667969 348.183594 C 364.035156 351.769531 358.40625 354.253906 351.3125 354.253906 L 23.457031 354.253906 C 16.4375 354.253906 10.804688 351.84375 8.171875 348.332031 L 8.171875 351.332031 C 7.734375 353.449219 8.246094 355.5 9.632812 357.328125 C 12.339844 360.691406 17.753906 362.667969 24.113281 362.667969 L 350.652344 362.667969 C 357.089844 362.667969 362.5 360.617188 365.207031 357.253906 C 366.59375 355.425781 367.179688 353.378906 366.667969 351.257812 Z M 366.667969 351.257812 " fill-opacity="1" fill-rule="nonzero"/></g><g fill="#09489f" fill-opacity="1"><g transform="translate(58.29263, 154.421764)"><g><path d="M 21.421875 -28.417969 C 21.503906 -30.148438 20.578125 -31.539062 18.804688 -31.539062 C 15.9375 -31.539062 14.210938 -28.378906 14.210938 -25.425781 C 14.210938 -25.046875 14.25 -24.707031 14.292969 -24.328125 C 13.746094 -24.289062 13.15625 -24.246094 12.480469 -24.246094 C 7.675781 -24.246094 4.175781 -26.3125 2.109375 -30.613281 C 1.941406 -30.949219 1.644531 -31.117188 1.308594 -31.117188 C 0.96875 -31.117188 0.421875 -30.863281 0.421875 -30.273438 C 0.421875 -30.105469 0.464844 -29.980469 0.507812 -29.851562 C 2.910156 -24.917969 7 -22.472656 12.566406 -22.472656 C 13.324219 -22.472656 14 -22.515625 14.632812 -22.558594 C 15.09375 -20.871094 15.855469 -19.144531 16.65625 -17.371094 C 17.878906 -14.671875 19.144531 -11.890625 19.144531 -8.980469 C 19.144531 -3.710938 15.304688 0.335938 9.738281 0.335938 C 5.230469 0.335938 1.769531 -2.613281 1.769531 -6.832031 C 1.769531 -10.835938 4.808594 -14.378906 8.515625 -14.378906 C 11.132812 -14.378906 12.859375 -12.101562 12.609375 -9.65625 C 12.566406 -9.109375 12.988281 -8.6875 13.535156 -8.6875 C 13.957031 -8.6875 14.25 -9.023438 14.335938 -9.320312 C 14.421875 -9.65625 14.421875 -9.910156 14.421875 -10.078125 C 14.421875 -13.324219 12.015625 -16.148438 8.515625 -16.148438 C 3.964844 -16.148438 0 -11.976562 0 -6.957031 C 0 -1.8125 4.003906 2.109375 9.613281 2.109375 C 15.980469 2.109375 20.914062 -2.359375 20.914062 -8.980469 C 20.914062 -12.226562 19.566406 -15.222656 18.257812 -18.089844 C 17.5 -19.734375 16.78125 -21.335938 16.359375 -22.894531 C 19.480469 -23.867188 21.292969 -25.933594 21.421875 -28.417969 Z M 19.648438 -28.417969 C 19.648438 -27.746094 19.566406 -25.972656 16.066406 -24.667969 C 16.023438 -24.917969 16.023438 -25.214844 16.023438 -25.46875 C 16.023438 -27.367188 16.910156 -29.769531 18.636719 -29.769531 C 19.3125 -29.769531 19.648438 -29.304688 19.648438 -28.417969 Z M 19.648438 -28.417969 "/></g></g></g><g fill="#09489f" fill-opacity="1"><g transform="translate(81.563079, 154.421764)"><g><path d="M 18.847656 -8.898438 C 19.101562 -9.488281 18.636719 -10.121094 18.003906 -10.121094 C 17.667969 -10.121094 17.328125 -9.910156 17.203125 -9.570312 C 15.726562 -6.070312 14.25 -4.46875 12.480469 -4.46875 C 11.511719 -4.46875 10.792969 -4.765625 10.332031 -5.355469 C 12.269531 -8.644531 13.621094 -12.777344 13.621094 -15.433594 C 13.621094 -17.960938 12.1875 -19.859375 9.402344 -19.945312 C 7.292969 -19.945312 5.230469 -18.46875 3.457031 -15.515625 C 2.066406 -13.238281 -0.125 -9.148438 -0.125 -4.257812 C -0.125 -1.8125 0.800781 0 3.542969 0 C 5.566406 0 7.714844 -1.730469 9.277344 -3.835938 C 10.203125 -3.078125 11.300781 -2.699219 12.480469 -2.699219 C 15.011719 -2.699219 16.992188 -4.636719 18.847656 -8.898438 Z M 9.066406 -10.121094 C 8.644531 -10.121094 8.265625 -9.867188 8.179688 -9.445312 C 7.886719 -8.390625 7.800781 -6.535156 8.265625 -5.4375 C 6.871094 -3.457031 5.101562 -1.769531 3.542969 -1.769531 C 2.191406 -1.769531 1.6875 -2.824219 1.6875 -4.34375 C 1.6875 -8.6875 3.921875 -12.777344 5.019531 -14.589844 C 6.242188 -16.699219 7.757812 -18.171875 9.359375 -18.171875 C 10.792969 -18.171875 11.847656 -17.246094 11.847656 -15.476562 C 11.847656 -13.535156 11.046875 -10.625 9.738281 -8.011719 C 9.78125 -8.304688 9.78125 -8.644531 9.910156 -8.980469 C 10.078125 -9.570312 9.65625 -10.121094 9.066406 -10.121094 Z M 9.066406 -10.121094 "/></g></g></g><g fill="#09489f" fill-opacity="1"><g transform="translate(98.046303, 154.421764)"><g><path d="M 16.488281 -30.652344 C 15.894531 -31.835938 14.800781 -32.46875 13.449219 -32.46875 C 10.035156 -32.46875 7.632812 -28.167969 5.988281 -23.824219 L 4.511719 -19.945312 L 1.097656 -19.945312 C 0.589844 -19.945312 0.210938 -19.523438 0.210938 -19.058594 C 0.210938 -18.554688 0.589844 -18.171875 1.097656 -18.171875 L 3.835938 -18.171875 C 1.265625 -11.382812 -0.0859375 -7 -3.203125 1.601562 C -4.34375 1.898438 -5.480469 2.109375 -6.535156 2.277344 C -11.59375 3.203125 -13.660156 5.144531 -13.660156 7.800781 C -13.660156 10.289062 -12.015625 11.933594 -9.488281 11.890625 C -6.453125 11.847656 -3.835938 8.855469 -1.8125 3.078125 C 4.34375 1.265625 7.84375 -2.65625 10.457031 -8.8125 C 10.5 -8.9375 10.542969 -9.066406 10.542969 -9.191406 C 10.542969 -9.53125 10.332031 -9.824219 9.992188 -9.992188 C 9.867188 -10.035156 9.738281 -10.078125 9.613281 -10.078125 C 9.277344 -10.078125 8.980469 -9.867188 8.8125 -9.53125 C 6.703125 -4.554688 3.753906 -0.675781 -1.097656 0.96875 C 3.164062 -11.175781 4.46875 -14.757812 5.734375 -18.171875 L 9.109375 -18.171875 C 9.570312 -18.171875 9.992188 -18.554688 9.992188 -19.058594 C 9.992188 -19.523438 9.570312 -19.945312 9.109375 -19.945312 L 6.410156 -19.945312 C 6.789062 -21 7.253906 -22.136719 7.675781 -23.148438 C 9.023438 -26.734375 11.089844 -30.78125 13.535156 -30.652344 C 14 -30.652344 14.546875 -30.527344 14.925781 -29.894531 C 15.09375 -29.558594 15.390625 -29.390625 15.726562 -29.390625 C 15.855469 -29.390625 15.980469 -29.429688 16.105469 -29.472656 C 16.402344 -29.640625 16.613281 -29.9375 16.613281 -30.273438 C 16.613281 -30.402344 16.570312 -30.527344 16.488281 -30.652344 Z M -3.878906 3.585938 C -5.269531 7.84375 -7.210938 10.078125 -9.488281 10.121094 C -10.921875 10.160156 -11.890625 9.234375 -11.890625 7.757812 C -11.722656 5.820312 -10.078125 4.722656 -6.199219 4.046875 C -5.4375 3.921875 -4.679688 3.753906 -3.878906 3.585938 Z M -3.878906 3.585938 "/></g></g></g><g fill="#09489f" fill-opacity="1"><g transform="translate(106.14037, 154.421764)"><g><path d="M 10.710938 -10.035156 C 10.582031 -10.078125 10.457031 -10.121094 10.332031 -10.121094 C 9.992188 -10.121094 9.65625 -9.910156 9.488281 -9.613281 C 7.503906 -5.269531 5.480469 -1.769531 2.445312 -1.769531 C 1.601562 -1.769531 1.097656 -2.402344 1.097656 -3.542969 C 1.097656 -4.765625 1.644531 -6.703125 3.375 -11.59375 C 4.765625 -15.515625 5.480469 -17.457031 5.734375 -18.257812 L 9.191406 -18.257812 C 9.699219 -18.257812 10.078125 -18.636719 10.078125 -19.144531 C 10.078125 -19.605469 9.699219 -20.027344 9.191406 -20.027344 L 6.367188 -20.027344 C 6.664062 -20.828125 8.476562 -25.972656 8.347656 -25.722656 C 8.558594 -26.269531 8.136719 -26.902344 7.503906 -26.902344 C 7.125 -26.902344 6.789062 -26.691406 6.664062 -26.3125 C 6.621094 -26.144531 4.554688 -20.195312 4.46875 -20.027344 L 1.222656 -20.027344 C 0.71875 -20.027344 0.335938 -19.605469 0.335938 -19.144531 C 0.335938 -18.636719 0.71875 -18.257812 1.222656 -18.257812 L 3.878906 -18.257812 L 1.730469 -12.226562 C 0.378906 -8.769531 -0.675781 -5.101562 -0.675781 -3.542969 C -0.675781 -1.519531 0.421875 0 2.445312 0 C 6.324219 0 8.6875 -3.585938 11.132812 -8.855469 C 11.175781 -8.980469 11.214844 -9.109375 11.214844 -9.234375 C 11.214844 -9.570312 11.003906 -9.867188 10.710938 -10.035156 Z M 10.710938 -10.035156 "/></g></g></g><g fill="#09489f" fill-opacity="1"><g transform="translate(114.908942, 154.421764)"><g><path d="M 24.625 -9.234375 C 24.625 -9.738281 24.160156 -10.121094 23.695312 -10.121094 C 23.359375 -10.121094 23.066406 -9.910156 22.894531 -9.570312 C 21.546875 -6.453125 20.195312 -4.46875 18.003906 -4.46875 C 17.246094 -4.46875 16.445312 -4.808594 16.023438 -5.355469 C 17.5 -7.925781 21.039062 -14.96875 22.894531 -18.761719 C 22.9375 -18.890625 22.980469 -19.015625 22.980469 -19.183594 C 22.980469 -19.648438 22.601562 -20.070312 22.136719 -20.070312 C 21.800781 -20.070312 21.460938 -19.859375 21.292969 -19.566406 C 19.988281 -16.824219 16.699219 -10.371094 15.433594 -7.96875 C 15.476562 -8.265625 15.515625 -8.644531 15.644531 -8.980469 C 15.8125 -9.570312 15.347656 -10.121094 14.757812 -10.121094 C 14.335938 -10.121094 14.042969 -9.867188 13.914062 -9.445312 C 13.578125 -8.265625 13.492188 -6.703125 13.957031 -5.4375 C 12.058594 -2.742188 11.300781 -1.769531 9.949219 -1.769531 C 9.148438 -1.769531 8.6875 -2.191406 8.6875 -3.542969 C 8.6875 -5.648438 10.964844 -11.804688 13.621094 -18.847656 C 13.832031 -19.394531 13.410156 -20.027344 12.734375 -20.027344 C 12.398438 -20.027344 12.058594 -19.816406 11.933594 -19.480469 C 11.46875 -18.171875 9.109375 -11.511719 8.347656 -9.613281 C 6.070312 -3.921875 4.300781 -1.769531 2.277344 -1.769531 C 1.390625 -1.769531 1.011719 -2.277344 1.011719 -3.542969 C 1.011719 -5.1875 1.8125 -7.464844 5.945312 -18.847656 C 6.15625 -19.394531 5.820312 -20.027344 5.101562 -20.027344 C 4.765625 -20.027344 4.425781 -19.816406 4.300781 -19.480469 C 0.675781 -9.867188 -0.757812 -5.648438 -0.757812 -3.542969 C -0.757812 -1.476562 0.253906 0 2.277344 0 C 4.175781 0 5.691406 -1.265625 6.914062 -2.992188 C 7.167969 -1.179688 8.011719 0 9.949219 0 C 11.933594 0 13.449219 -1.601562 15.054688 -3.835938 C 15.726562 -3.164062 16.738281 -2.699219 18.003906 -2.699219 C 21 -2.699219 23.359375 -5.648438 24.539062 -8.898438 C 24.582031 -9.023438 24.625 -9.109375 24.625 -9.234375 Z M 24.625 -9.234375 "/></g></g></g><g fill="#09489f" fill-opacity="1"><g transform="translate(137.083317, 154.421764)"><g><path d="M 18.890625 -10.035156 C 18.761719 -10.078125 18.636719 -10.121094 18.511719 -10.121094 C 18.171875 -10.121094 17.878906 -9.910156 17.710938 -9.570312 L 17.667969 -9.445312 C 16.277344 -6.324219 14.25 -1.769531 11.636719 -1.769531 C 10.753906 -1.769531 10.371094 -2.277344 10.371094 -3.542969 C 10.371094 -5.398438 11.765625 -9.066406 13.28125 -13.324219 L 15.390625 -18.972656 C 15.601562 -19.480469 15.265625 -20.15625 14.589844 -20.15625 C 14.210938 -20.15625 13.871094 -19.945312 13.746094 -19.605469 C 13.535156 -19.058594 13.28125 -18.425781 13.027344 -17.710938 C 12.269531 -19.226562 10.964844 -19.945312 9.191406 -19.945312 C 4.132812 -19.945312 -0.125 -10.078125 -0.125 -4.554688 C -0.125 -2.023438 0.96875 0 3.332031 0 C 5.144531 0 6.914062 -1.179688 8.601562 -3.542969 C 8.601562 -1.476562 9.613281 0 11.636719 0 C 15.433594 0 17.710938 -5.1875 19.3125 -8.726562 L 19.355469 -8.855469 C 19.394531 -8.980469 19.4375 -9.109375 19.4375 -9.234375 C 19.4375 -9.570312 19.226562 -9.867188 18.890625 -10.035156 Z M 3.289062 -1.769531 C 2.023438 -1.769531 1.644531 -2.992188 1.644531 -4.847656 C 1.730469 -9.023438 5.3125 -18.089844 9.191406 -18.171875 C 10.710938 -18.171875 11.804688 -17.035156 11.890625 -15.09375 L 10.878906 -12.398438 C 9.191406 -8.097656 6.703125 -1.769531 3.289062 -1.769531 Z M 3.289062 -1.769531 "/></g></g></g><g fill="#09489f" fill-opacity="1"><g transform="translate(154.072432, 154.421764)"><g><path d="M 17.414062 -10.035156 C 17.289062 -10.078125 17.160156 -10.121094 17.035156 -10.121094 C 16.699219 -10.121094 16.402344 -9.910156 16.234375 -9.570312 C 13.832031 -4.132812 12.226562 -1.769531 10.160156 -1.769531 C 9.234375 -1.769531 8.898438 -2.488281 8.898438 -3.542969 C 8.9375 -4.257812 9.023438 -4.976562 9.277344 -5.859375 C 9.53125 -6.914062 11.554688 -12.945312 12.101562 -14.335938 C 12.269531 -14.84375 12.058594 -15.390625 11.59375 -15.558594 C 11.132812 -15.726562 10.582031 -15.894531 9.992188 -16.066406 C 8.769531 -16.488281 7.335938 -16.949219 6.15625 -17.539062 C 6.664062 -19.183594 6.832031 -19.566406 6.832031 -20.238281 C 6.832031 -21.925781 5.902344 -23.023438 4.386719 -23.023438 C 3.035156 -23.023438 1.8125 -22.011719 1.8125 -20.28125 C 1.8125 -18.722656 2.699219 -17.625 3.964844 -16.738281 L 3.457031 -15.476562 L 0.0859375 -8.136719 C 0.0429688 -8.011719 0 -7.886719 0 -7.757812 C 0 -7.421875 0.210938 -7.125 0.507812 -6.957031 C 0.632812 -6.914062 0.757812 -6.871094 0.925781 -6.871094 C 1.222656 -6.871094 1.519531 -7.042969 1.6875 -7.378906 C 5.058594 -14.757812 5.355469 -15.347656 5.523438 -15.855469 C 6.453125 -15.390625 6.914062 -15.222656 10.121094 -14.167969 C 9.738281 -13.238281 7.886719 -7.632812 7.546875 -6.28125 C 7.253906 -5.230469 7.125 -4.386719 7.125 -3.542969 C 7.125 -1.476562 8.136719 0 10.121094 0 L 10.160156 0 C 13.027344 0 15.136719 -2.570312 17.878906 -8.855469 C 17.921875 -8.980469 17.960938 -9.109375 17.960938 -9.234375 C 17.960938 -9.570312 17.75 -9.867188 17.414062 -10.035156 Z M 5.058594 -20.28125 C 5.058594 -19.859375 4.808594 -19.101562 4.597656 -18.511719 C 3.964844 -19.015625 3.585938 -19.777344 3.585938 -20.449219 C 3.585938 -20.914062 3.835938 -21.25 4.386719 -21.25 C 4.722656 -21.25 5.058594 -21 5.058594 -20.28125 Z M 5.058594 -20.28125 "/></g></g></g><g fill="#09489f" fill-opacity="1"><g transform="translate(169.58606, 154.421764)"><g><path d="M 15.265625 -10.035156 C 14.800781 -10.203125 14.292969 -9.992188 14.082031 -9.570312 C 11.722656 -4.132812 9.023438 -1.6875 5.566406 -1.769531 C 3.035156 -1.855469 1.6875 -3.332031 1.769531 -5.734375 C 1.8125 -6.621094 1.941406 -7.421875 2.234375 -8.515625 C 6.914062 -9.65625 13.199219 -12.355469 13.199219 -16.824219 C 13.199219 -18.847656 11.722656 -19.945312 9.613281 -19.945312 C 4.636719 -19.945312 0.253906 -11.175781 0 -5.777344 C -0.0859375 -2.320312 2.023438 0 5.523438 0 C 9.78125 0 12.988281 -2.78125 15.726562 -8.855469 C 15.769531 -8.980469 15.8125 -9.066406 15.8125 -9.191406 C 15.8125 -9.53125 15.601562 -9.867188 15.265625 -10.035156 Z M 2.910156 -10.542969 C 4.257812 -13.789062 6.703125 -18.171875 9.613281 -18.171875 C 10.542969 -18.171875 11.425781 -17.960938 11.425781 -16.824219 C 11.425781 -13.703125 6.410156 -11.636719 2.910156 -10.542969 Z M 2.910156 -10.542969 "/></g></g></g><g fill="#09489f" fill-opacity="1"><g transform="translate(182.949695, 154.421764)"><g/></g></g><g fill="#09489f" fill-opacity="1"><g transform="translate(195.59667, 154.421764)"><g><path d="M 21.96875 -10.078125 C 21.503906 -10.246094 20.957031 -10.035156 20.789062 -9.570312 C 18.046875 -2.910156 14.503906 0.757812 8.769531 0.757812 C 4.808594 0.757812 1.769531 -1.558594 1.769531 -5.820312 C 1.769531 -10.203125 4.679688 -14.125 9.234375 -15.769531 C 10.625 -14.84375 11.976562 -14.335938 13.324219 -14.335938 C 14.757812 -14.335938 15.8125 -15.09375 15.8125 -16.488281 C 15.8125 -17.667969 14.503906 -18.34375 13.238281 -18.34375 C 12.480469 -18.34375 10.542969 -18.003906 9.570312 -17.75 C 8.515625 -18.679688 7.714844 -19.988281 7.714844 -21.292969 C 7.714844 -22.050781 7.800781 -22.601562 7.925781 -23.066406 C 9.066406 -22.726562 10.332031 -22.433594 11.933594 -22.433594 C 16.023438 -22.433594 20.746094 -24.582031 20.828125 -27.871094 C 20.828125 -29.980469 18.890625 -31.246094 16.234375 -31.246094 C 12.226562 -31.246094 8.558594 -29.011719 6.871094 -25.382812 C 4.511719 -26.859375 3.289062 -27.914062 1.980469 -30.613281 C 1.8125 -30.949219 1.519531 -31.117188 1.179688 -31.117188 C 1.054688 -31.117188 0.925781 -31.074219 0.800781 -31.035156 C 0.464844 -30.863281 0.296875 -30.570312 0.296875 -30.273438 C 0.296875 -30.105469 0.335938 -29.980469 0.378906 -29.851562 C 1.601562 -27.238281 3.753906 -24.878906 6.28125 -23.738281 C 6.199219 -23.402344 5.902344 -22.433594 5.902344 -21.25 C 5.902344 -19.734375 6.664062 -18.214844 7.714844 -17.078125 C 3.164062 -15.136719 0 -11.300781 0 -5.820312 C 0 -0.71875 3.625 2.53125 8.769531 2.53125 C 15.265625 2.53125 19.4375 -1.558594 22.433594 -8.898438 C 22.472656 -9.023438 22.515625 -9.109375 22.515625 -9.234375 C 22.515625 -9.570312 22.304688 -9.910156 21.96875 -10.078125 Z M 8.515625 -24.75 C 9.824219 -27.492188 12.902344 -29.472656 16.234375 -29.472656 C 17.667969 -29.472656 19.058594 -28.96875 19.058594 -27.871094 C 18.933594 -25.761719 14.96875 -24.246094 11.933594 -24.246094 C 10.625 -24.246094 9.613281 -24.414062 8.515625 -24.75 Z M 11.804688 -16.402344 C 12.566406 -16.527344 13.113281 -16.570312 13.324219 -16.570312 C 13.789062 -16.570312 14.042969 -16.445312 14.042969 -16.316406 C 14.082031 -16.234375 13.957031 -16.148438 13.660156 -16.105469 C 13.070312 -16.066406 12.4375 -16.148438 11.804688 -16.402344 Z M 11.804688 -16.402344 "/></g></g></g><g fill="#09489f" fill-opacity="1"><g transform="translate(215.663207, 154.421764)"><g><path d="M 18.722656 -10.035156 C 18.59375 -10.078125 18.46875 -10.121094 18.34375 -10.121094 C 18.003906 -10.121094 17.710938 -9.910156 17.539062 -9.570312 C 14.96875 -4.003906 13.449219 -1.769531 11.46875 -1.769531 C 10.582031 -1.769531 10.203125 -2.320312 10.203125 -3.542969 C 10.203125 -6.789062 13.492188 -12.3125 13.492188 -16.066406 C 13.492188 -18.300781 12.566406 -20.027344 9.53125 -20.027344 C 8.136719 -20.027344 6.832031 -19.226562 5.609375 -17.960938 L 5.945312 -18.804688 C 6.15625 -19.355469 5.734375 -19.988281 5.101562 -19.988281 C 4.722656 -19.988281 4.386719 -19.777344 4.257812 -19.394531 C 2.613281 -14.882812 -0.0429688 -7.253906 -2.234375 -1.179688 C -2.402344 -0.675781 -2.152344 -0.210938 -1.6875 -0.0429688 C -1.222656 0.0859375 -0.71875 -0.125 -0.546875 -0.632812 L 2.402344 -8.980469 C 3.753906 -12.566406 6.957031 -18.257812 9.53125 -18.257812 C 11.175781 -18.257812 11.722656 -17.289062 11.722656 -16.066406 C 11.722656 -12.398438 8.433594 -7.503906 8.433594 -3.542969 C 8.433594 -1.476562 9.445312 0 11.46875 0 C 14.335938 0 16.316406 -2.488281 19.183594 -8.855469 C 19.226562 -8.980469 19.269531 -9.109375 19.269531 -9.234375 C 19.269531 -9.570312 19.058594 -9.867188 18.722656 -10.035156 Z M 18.722656 -10.035156 "/></g></g></g><g fill="#09489f" fill-opacity="1"><g transform="translate(232.483692, 154.421764)"><g><path d="M 19.3125 -9.992188 C 19.183594 -10.035156 19.058594 -10.078125 18.933594 -10.078125 C 18.59375 -10.078125 18.300781 -9.867188 18.132812 -9.53125 C 16.023438 -4.554688 13.070312 -0.675781 8.222656 0.96875 L 9.992188 -4.175781 L 12.226562 -10.457031 C 13.578125 -14.042969 14.714844 -17.078125 15.390625 -18.722656 C 15.644531 -19.480469 15.09375 -19.945312 14.503906 -19.945312 C 14.167969 -19.945312 13.832031 -19.734375 13.703125 -19.355469 L 13.027344 -17.625 C 12.3125 -19.058594 11.046875 -19.945312 9.148438 -19.945312 C 4.132812 -19.945312 0.125 -10.414062 -0.0859375 -4.847656 C -0.0859375 -2.152344 0.589844 0 3.375 0 C 4.890625 0 6.242188 -0.84375 7.378906 -2.023438 L 6.113281 1.601562 C 4.976562 1.898438 3.835938 2.109375 2.78125 2.277344 C -2.277344 3.203125 -4.34375 5.144531 -4.34375 7.800781 C -4.34375 10.289062 -2.699219 11.933594 -0.167969 11.890625 C 2.867188 11.847656 5.480469 8.855469 7.503906 3.078125 C 13.660156 1.265625 17.160156 -2.65625 19.777344 -8.8125 C 19.816406 -8.9375 19.859375 -9.066406 19.859375 -9.191406 C 19.859375 -9.53125 19.648438 -9.824219 19.3125 -9.992188 Z M 3.289062 -1.769531 C 1.730469 -1.769531 1.644531 -3.078125 1.730469 -4.808594 C 1.8125 -8.980469 5.269531 -18.089844 9.191406 -18.171875 C 10.710938 -18.171875 11.847656 -16.992188 11.847656 -14.757812 L 10.921875 -12.355469 C 9.234375 -8.054688 6.664062 -1.769531 3.289062 -1.769531 Z M -0.167969 10.121094 C -1.601562 10.160156 -2.570312 9.234375 -2.570312 7.757812 C -2.402344 5.820312 -0.757812 4.722656 3.121094 4.046875 C 3.878906 3.921875 4.636719 3.753906 5.4375 3.585938 C 4.046875 7.84375 2.109375 10.078125 -0.167969 10.121094 Z M -0.167969 10.121094 "/></g></g></g><g fill="#09489f" fill-opacity="1"><g transform="translate(249.894361, 154.421764)"><g><path d="M 6.871094 -22.09375 C 7.675781 -22.09375 8.304688 -22.726562 8.304688 -23.527344 C 8.304688 -24.328125 7.675781 -24.960938 6.871094 -24.960938 C 6.070312 -24.960938 5.398438 -24.328125 5.398438 -23.527344 C 5.398438 -22.726562 6.070312 -22.09375 6.871094 -22.09375 Z M 9.65625 -10.035156 C 9.53125 -10.078125 9.445312 -10.121094 9.320312 -10.121094 C 8.980469 -10.121094 8.644531 -9.910156 8.476562 -9.570312 C 6.914062 -6.113281 4.976562 -1.769531 2.359375 -1.769531 C 1.476562 -1.769531 1.097656 -2.320312 1.097656 -3.542969 C 1.097656 -5.355469 1.855469 -7.292969 5.945312 -18.804688 C 6.199219 -19.523438 5.648438 -19.945312 5.101562 -19.945312 C 4.765625 -19.945312 4.425781 -19.734375 4.300781 -19.355469 C 2.445312 -14.546875 -0.546875 -6.832031 -0.675781 -3.542969 C -0.757812 -1.601562 0.335938 0 2.359375 0 C 5.902344 0 8.097656 -4.300781 10.121094 -8.855469 C 10.160156 -8.980469 10.203125 -9.109375 10.203125 -9.234375 C 10.203125 -9.570312 9.992188 -9.910156 9.65625 -10.035156 Z M 9.65625 -10.035156 "/></g></g></g><g fill="#09489f" fill-opacity="1"><g transform="translate(257.651182, 154.421764)"><g><path d="M 18.722656 -10.035156 C 18.59375 -10.078125 18.46875 -10.121094 18.34375 -10.121094 C 18.003906 -10.121094 17.710938 -9.910156 17.539062 -9.570312 C 14.96875 -4.003906 13.449219 -1.769531 11.46875 -1.769531 C 10.582031 -1.769531 10.203125 -2.320312 10.203125 -3.542969 C 10.203125 -6.789062 13.492188 -12.3125 13.492188 -16.066406 C 13.492188 -18.300781 12.566406 -20.027344 9.53125 -20.027344 C 8.136719 -20.027344 6.832031 -19.226562 5.609375 -17.960938 L 5.945312 -18.804688 C 6.15625 -19.355469 5.734375 -19.988281 5.101562 -19.988281 C 4.722656 -19.988281 4.386719 -19.777344 4.257812 -19.394531 C 2.613281 -14.882812 -0.0429688 -7.253906 -2.234375 -1.179688 C -2.402344 -0.675781 -2.152344 -0.210938 -1.6875 -0.0429688 C -1.222656 0.0859375 -0.71875 -0.125 -0.546875 -0.632812 L 2.402344 -8.980469 C 3.753906 -12.566406 6.957031 -18.257812 9.53125 -18.257812 C 11.175781 -18.257812 11.722656 -17.289062 11.722656 -16.066406 C 11.722656 -12.398438 8.433594 -7.503906 8.433594 -3.542969 C 8.433594 -1.476562 9.445312 0 11.46875 0 C 14.335938 0 16.316406 -2.488281 19.183594 -8.855469 C 19.226562 -8.980469 19.269531 -9.109375 19.269531 -9.234375 C 19.269531 -9.570312 19.058594 -9.867188 18.722656 -10.035156 Z M 18.722656 -10.035156 "/></g></g></g><g fill="#09489f" fill-opacity="1"><g transform="translate(274.471667, 154.421764)"><g><path d="M 15.265625 -10.035156 C 14.800781 -10.203125 14.292969 -9.992188 14.082031 -9.570312 C 11.722656 -4.132812 9.023438 -1.6875 5.566406 -1.769531 C 3.035156 -1.855469 1.6875 -3.332031 1.769531 -5.734375 C 1.8125 -6.621094 1.941406 -7.421875 2.234375 -8.515625 C 6.914062 -9.65625 13.199219 -12.355469 13.199219 -16.824219 C 13.199219 -18.847656 11.722656 -19.945312 9.613281 -19.945312 C 4.636719 -19.945312 0.253906 -11.175781 0 -5.777344 C -0.0859375 -2.320312 2.023438 0 5.523438 0 C 9.78125 0 12.988281 -2.78125 15.726562 -8.855469 C 15.769531 -8.980469 15.8125 -9.066406 15.8125 -9.191406 C 15.8125 -9.53125 15.601562 -9.867188 15.265625 -10.035156 Z M 2.910156 -10.542969 C 4.257812 -13.789062 6.703125 -18.171875 9.613281 -18.171875 C 10.542969 -18.171875 11.425781 -17.960938 11.425781 -16.824219 C 11.425781 -13.703125 6.410156 -11.636719 2.910156 -10.542969 Z M 2.910156 -10.542969 "/></g></g></g><g fill="#09489f" fill-opacity="1"><g transform="translate(287.835302, 154.421764)"><g><path d="M 15.265625 -10.035156 C 14.800781 -10.203125 14.292969 -9.992188 14.082031 -9.570312 C 11.722656 -4.132812 9.023438 -1.6875 5.566406 -1.769531 C 3.035156 -1.855469 1.6875 -3.332031 1.769531 -5.734375 C 1.8125 -6.621094 1.941406 -7.421875 2.234375 -8.515625 C 6.914062 -9.65625 13.199219 -12.355469 13.199219 -16.824219 C 13.199219 -18.847656 11.722656 -19.945312 9.613281 -19.945312 C 4.636719 -19.945312 0.253906 -11.175781 0 -5.777344 C -0.0859375 -2.320312 2.023438 0 5.523438 0 C 9.78125 0 12.988281 -2.78125 15.726562 -8.855469 C 15.769531 -8.980469 15.8125 -9.066406 15.8125 -9.191406 C 15.8125 -9.53125 15.601562 -9.867188 15.265625 -10.035156 Z M 2.910156 -10.542969 C 4.257812 -13.789062 6.703125 -18.171875 9.613281 -18.171875 C 10.542969 -18.171875 11.425781 -17.960938 11.425781 -16.824219 C 11.425781 -13.703125 6.410156 -11.636719 2.910156 -10.542969 Z M 2.910156 -10.542969 "/></g></g></g><g fill="#09489f" fill-opacity="1"><g transform="translate(301.198937, 154.421764)"><g><path d="M 17.414062 -10.035156 C 17.289062 -10.078125 17.160156 -10.121094 17.035156 -10.121094 C 16.699219 -10.121094 16.402344 -9.910156 16.234375 -9.570312 C 13.832031 -4.132812 12.226562 -1.769531 10.160156 -1.769531 C 9.234375 -1.769531 8.898438 -2.488281 8.898438 -3.542969 C 8.9375 -4.257812 9.023438 -4.976562 9.277344 -5.859375 C 9.53125 -6.914062 11.554688 -12.945312 12.101562 -14.335938 C 12.269531 -14.84375 12.058594 -15.390625 11.59375 -15.558594 C 11.132812 -15.726562 10.582031 -15.894531 9.992188 -16.066406 C 8.769531 -16.488281 7.335938 -16.949219 6.15625 -17.539062 C 6.664062 -19.183594 6.832031 -19.566406 6.832031 -20.238281 C 6.832031 -21.925781 5.902344 -23.023438 4.386719 -23.023438 C 3.035156 -23.023438 1.8125 -22.011719 1.8125 -20.28125 C 1.8125 -18.722656 2.699219 -17.625 3.964844 -16.738281 L 3.457031 -15.476562 L 0.0859375 -8.136719 C 0.0429688 -8.011719 0 -7.886719 0 -7.757812 C 0 -7.421875 0.210938 -7.125 0.507812 -6.957031 C 0.632812 -6.914062 0.757812 -6.871094 0.925781 -6.871094 C 1.222656 -6.871094 1.519531 -7.042969 1.6875 -7.378906 C 5.058594 -14.757812 5.355469 -15.347656 5.523438 -15.855469 C 6.453125 -15.390625 6.914062 -15.222656 10.121094 -14.167969 C 9.738281 -13.238281 7.886719 -7.632812 7.546875 -6.28125 C 7.253906 -5.230469 7.125 -4.386719 7.125 -3.542969 C 7.125 -1.476562 8.136719 0 10.121094 0 L 10.160156 0 C 13.027344 0 15.136719 -2.570312 17.878906 -8.855469 C 17.921875 -8.980469 17.960938 -9.109375 17.960938 -9.234375 C 17.960938 -9.570312 17.75 -9.867188 17.414062 -10.035156 Z M 5.058594 -20.28125 C 5.058594 -19.859375 4.808594 -19.101562 4.597656 -18.511719 C 3.964844 -19.015625 3.585938 -19.777344 3.585938 -20.449219 C 3.585938 -20.914062 3.835938 -21.25 4.386719 -21.25 C 4.722656 -21.25 5.058594 -21 5.058594 -20.28125 Z M 5.058594 -20.28125 "/></g></g></g><g fill="#09489f" fill-opacity="1"><g transform="translate(94.505859, 97.782807)"><g><path d="M 12.28125 0.421875 C 17.972656 0.421875 22.609375 -2.953125 22.609375 -8.644531 C 22.609375 -19.871094 7.640625 -17.128906 7.640625 -23.613281 C 7.640625 -26.089844 9.59375 -27.25 11.910156 -27.25 C 14.019531 -27.25 15.917969 -26.300781 17.339844 -24.507812 L 20.976562 -27.828125 C 18.972656 -30.304688 15.652344 -32.046875 11.910156 -32.046875 C 6.957031 -32.046875 2.476562 -28.9375 2.476562 -23.242188 C 2.476562 -12.753906 17.445312 -15.335938 17.445312 -8.644531 C 17.445312 -6.0625 15.285156 -4.53125 12.332031 -4.53125 C 9.117188 -4.53125 6.695312 -6.324219 5.585938 -9.011719 L 1.160156 -6.324219 C 3.003906 -2.371094 7.222656 0.421875 12.28125 0.421875 Z M 12.28125 0.421875 "/></g></g></g><g fill="#09489f" fill-opacity="1"><g transform="translate(118.433954, 97.782807)"><g><path d="M 5.957031 0.421875 C 7.800781 0.421875 9.382812 -1.160156 9.382812 -3.003906 C 9.382812 -4.847656 7.800781 -6.429688 5.957031 -6.429688 C 4.109375 -6.429688 2.53125 -4.847656 2.53125 -3.003906 C 2.53125 -1.160156 4.109375 0.421875 5.957031 0.421875 Z M 5.957031 0.421875 "/></g></g></g><g fill="#09489f" fill-opacity="1"><g transform="translate(130.345296, 97.782807)"><g/></g></g><g fill="#09489f" fill-opacity="1"><g transform="translate(142.994507, 97.782807)"><g><path d="M 20.820312 -16.023438 C 23.402344 -17.289062 25.035156 -19.660156 25.035156 -23.03125 C 25.035156 -28.25 20.976562 -31.625 15.917969 -31.625 L 3.480469 -31.625 L 3.480469 0 L 17.078125 0 C 22.082031 0 26.089844 -3.269531 26.089844 -8.484375 C 26.089844 -12.332031 23.929688 -14.863281 20.820312 -16.023438 Z M 19.871094 -22.503906 C 19.871094 -20.027344 17.816406 -18.078125 15.335938 -18.078125 L 8.589844 -18.078125 L 8.589844 -26.828125 L 15.335938 -26.828125 C 17.816406 -26.828125 19.871094 -25.035156 19.871094 -22.503906 Z M 16.339844 -4.796875 L 8.589844 -4.796875 L 8.589844 -13.546875 L 16.339844 -13.546875 C 18.867188 -13.546875 20.925781 -11.59375 20.925781 -9.117188 C 20.925781 -6.640625 18.867188 -4.796875 16.339844 -4.796875 Z M 16.339844 -4.796875 "/></g></g></g><g fill="#09489f" fill-opacity="1"><g transform="translate(171.086294, 97.782807)"><g><path d="M 26.457031 -4.109375 C 25.457031 -4.109375 24.507812 -4.636719 24.507812 -6.484375 L 24.507812 -21.082031 L 19.5 -21.082031 L 19.5 -18.867188 C 17.710938 -20.503906 15.390625 -21.503906 12.703125 -21.503906 C 6.746094 -21.503906 2.003906 -16.65625 2.003906 -10.542969 C 2.003906 -4.425781 6.746094 0.421875 12.703125 0.421875 C 15.757812 0.421875 18.445312 -0.949219 20.238281 -3.109375 C 21.292969 -1 23.347656 0.421875 25.929688 0.421875 C 26.5625 0.421875 27.144531 0.261719 27.617188 0 L 27.617188 -4.109375 Z M 13.335938 -4.214844 C 9.804688 -4.214844 7.011719 -7.011719 7.011719 -10.542969 C 7.011719 -14.074219 9.804688 -16.867188 13.335938 -16.867188 C 16.8125 -16.867188 19.660156 -14.074219 19.660156 -10.542969 C 19.660156 -7.011719 16.8125 -4.214844 13.335938 -4.214844 Z M 13.335938 -4.214844 "/></g></g></g><g fill="#09489f" fill-opacity="1"><g transform="translate(199.441605, 97.782807)"><g><path d="M 13.914062 -21.503906 C 11.804688 -21.503906 9.910156 -20.609375 8.484375 -19.078125 L 8.484375 -21.082031 L 3.480469 -21.082031 L 3.480469 0 L 8.484375 0 L 8.484375 -12.859375 C 8.484375 -15.125 10.277344 -16.867188 12.597656 -16.867188 C 14.914062 -16.867188 16.65625 -15.125 16.65625 -12.859375 L 16.65625 0 L 21.609375 0 L 21.609375 -13.386719 C 21.609375 -17.972656 18.027344 -21.503906 13.914062 -21.503906 Z M 13.914062 -21.503906 "/></g></g></g><g fill="#09489f" fill-opacity="1"><g transform="translate(224.160269, 97.782807)"><g><path d="M 19.5 -37.527344 L 19.5 -18.867188 C 17.710938 -20.503906 15.390625 -21.503906 12.703125 -21.503906 C 6.746094 -21.503906 2.003906 -16.65625 2.003906 -10.542969 C 2.003906 -4.425781 6.746094 0.421875 12.703125 0.421875 C 15.390625 0.421875 17.710938 -0.578125 19.5 -2.214844 L 19.5 0 L 24.507812 0 L 24.507812 -37.527344 Z M 13.335938 -4.214844 C 9.804688 -4.214844 7.011719 -7.011719 7.011719 -10.542969 C 7.011719 -14.074219 9.804688 -16.867188 13.335938 -16.867188 C 16.8125 -16.867188 19.660156 -14.074219 19.660156 -10.542969 C 19.660156 -7.011719 16.8125 -4.214844 13.335938 -4.214844 Z M 13.335938 -4.214844 "/></g></g></g><g fill="#09489f" fill-opacity="1"><g transform="translate(252.146644, 97.782807)"><g><path d="M 26.457031 -4.109375 C 25.457031 -4.109375 24.507812 -4.636719 24.507812 -6.484375 L 24.507812 -21.082031 L 19.5 -21.082031 L 19.5 -18.867188 C 17.710938 -20.503906 15.390625 -21.503906 12.703125 -21.503906 C 6.746094 -21.503906 2.003906 -16.65625 2.003906 -10.542969 C 2.003906 -4.425781 6.746094 0.421875 12.703125 0.421875 C 15.757812 0.421875 18.445312 -0.949219 20.238281 -3.109375 C 21.292969 -1 23.347656 0.421875 25.929688 0.421875 C 26.5625 0.421875 27.144531 0.261719 27.617188 0 L 27.617188 -4.109375 Z M 13.335938 -4.214844 C 9.804688 -4.214844 7.011719 -7.011719 7.011719 -10.542969 C 7.011719 -14.074219 9.804688 -16.867188 13.335938 -16.867188 C 16.8125 -16.867188 19.660156 -14.074219 19.660156 -10.542969 C 19.660156 -7.011719 16.8125 -4.214844 13.335938 -4.214844 Z M 13.335938 -4.214844 "/></g></g></g></svg>